<svg width="79" height="48" viewBox="0 0 79 48" fill="none" xmlns="http://www.w3.org/2000/svg">
<g clip-path="url(#clip0_74_4421)">
<path d="M24.4993 33.7557C24.6135 33.2704 24.7277 32.7994 24.8562 32.3284C25.4842 30.0875 26.3834 27.9466 27.9106 26.0911C29.2808 24.4354 30.8793 23.0367 33.006 22.2231C33.6483 21.9805 34.3049 21.852 34.99 21.8092C35.5323 21.7664 35.7607 21.9376 35.9605 22.3944C36.3602 23.3221 36.1318 24.207 35.7179 25.0777C35.6037 25.3203 35.2183 25.406 34.8615 25.2775C34.6902 25.2204 34.5332 25.1348 34.3762 25.0634C34.0622 24.935 33.7339 24.935 33.4485 25.1205C33.2915 25.2204 33.1202 25.2632 32.9204 25.2775C32.7777 25.2775 32.7063 25.3346 32.7348 25.4773C32.8633 26.5335 32.7919 27.5897 32.6492 28.6459C32.6492 28.7459 32.6207 28.8458 32.7206 28.9029C32.8205 28.9599 32.9204 28.9171 33.0346 28.86C33.2201 28.7459 33.4057 28.8315 33.4628 29.0313C33.5056 29.2026 33.4913 29.3739 33.4342 29.5451C33.0203 30.7298 32.6492 31.9287 32.378 33.1562C32.3495 33.2704 32.3352 33.3703 32.3066 33.4845C32.3066 33.5273 32.2924 33.5844 32.3495 33.6129C32.4066 33.6415 32.4494 33.6129 32.4779 33.5701C32.8062 33.2989 33.0488 33.356 33.2058 33.7557C33.2487 33.8556 33.2772 33.9555 33.3058 34.0554C33.3343 34.1268 33.3343 34.2409 33.4485 34.2267C33.5627 34.2267 33.5484 34.0982 33.5627 34.0269C33.6911 33.4131 33.8481 32.7994 34.0337 32.1999C34.5618 30.373 35.1898 28.5889 36.2888 26.976C37.5163 25.1919 39.0292 23.6647 41.0132 22.5942C41.8695 22.1375 42.783 21.8092 43.7964 21.8235C44.5814 21.8235 44.8954 22.0661 45.0667 22.794C45.138 23.108 45.1666 23.1223 45.4806 22.9796C46.2513 22.6513 46.965 22.2374 47.6786 21.8092C47.75 21.7664 47.8214 21.7236 47.8927 21.6807C48.1639 21.5237 48.3066 21.5808 48.4066 21.8663C48.5207 22.1946 48.5065 22.5228 48.4636 22.8511C48.2067 25.1062 47.4788 27.2615 46.8365 29.431C46.4512 30.7155 46.0372 31.9858 45.709 33.2847C45.6661 33.4845 45.6661 33.6843 45.6947 33.8841C45.709 34.0269 45.8089 34.0554 45.9088 33.9555C45.9944 33.8699 46.0515 33.7842 46.1229 33.6986C47.4645 32.0286 48.4066 30.1732 49.1487 28.2035C49.8053 26.4765 50.3334 24.7066 50.733 22.9082C50.7759 22.7369 50.833 22.637 51.0185 22.5657C51.6608 22.323 52.2603 22.0233 52.8597 21.695C53.0024 21.6094 53.1595 21.5523 53.3165 21.6094C53.502 21.6665 53.6019 21.7949 53.5305 21.9805C52.8597 23.6932 52.4458 25.4773 51.9748 27.2329C51.618 28.5746 51.2611 29.9305 50.9043 31.2864C50.7188 32.0144 50.5618 32.7423 50.3905 33.4702C50.3905 33.5273 50.3334 33.6129 50.4048 33.6415C50.4619 33.67 50.5475 33.6558 50.6046 33.6415C50.6902 33.5987 50.7473 33.5416 50.8187 33.4702C50.9329 33.356 51.0328 33.2418 51.147 33.1419C51.461 32.8707 51.618 32.8993 51.7892 33.2847C52.0176 33.8128 52.3316 34.2838 52.717 34.7262C52.9882 35.0402 53.345 35.0688 53.6876 34.8261C54.5011 34.2552 54.8008 33.513 54.5868 32.5567C54.3869 31.629 54.13 30.7298 53.8017 29.8449C53.6447 29.431 53.6162 28.9885 53.5448 28.5603C53.3307 27.0902 53.5305 25.6629 54.2156 24.3355C54.7866 23.2365 55.6144 22.323 56.8847 21.8948C57.6412 21.6379 58.4262 21.5095 59.2255 21.8377C59.6108 21.9947 59.725 22.2517 59.7107 22.6085C59.6822 23.265 59.4967 23.893 59.254 24.5068C58.9257 25.3061 58.6403 26.1196 58.1264 26.8475C57.841 27.2472 57.6126 27.2757 57.1987 26.9903C56.5136 26.5193 56.5992 25.8056 57.0417 25.1633L57.0702 25.1348C57.1844 25.0206 57.2558 24.8636 57.1416 24.7494C57.0274 24.621 56.8419 24.6781 56.7134 24.7494C56.3423 24.9635 56.0569 25.249 55.8999 25.6486C55.6572 26.2766 55.6572 26.9189 55.9284 27.5327C56.5707 29.0313 56.8562 30.6013 56.8562 32.1999C56.8562 34.4693 55.9712 36.4104 54.0586 37.8663C53.5591 38.2516 52.9739 38.4515 52.3031 38.3801C51.7179 38.323 51.3182 38.0233 51.0471 37.538C50.8901 37.2525 50.8044 36.9528 50.7188 36.6388C50.6617 36.3819 50.5332 36.3248 50.2906 36.4818C49.5484 36.9528 48.8205 37.4238 48.0783 37.8948C47.9213 37.9947 47.7785 38.166 47.5502 38.0376C47.3218 37.9091 47.2362 37.7093 47.2362 37.4666C47.2504 36.91 47.3361 36.3676 47.4074 35.8252C47.4217 35.6968 47.5074 35.5112 47.4074 35.4684C47.2647 35.4113 47.1791 35.5969 47.0934 35.6968C46.5368 36.4104 45.866 37.0099 45.1238 37.5523C44.2817 38.166 43.411 37.7236 43.097 37.0099C42.7973 36.3391 42.8116 35.6397 42.9686 34.9403C43.5109 32.4711 44.2103 30.0304 44.9382 27.5897C45.138 26.9332 45.3236 26.2909 45.5377 25.6486C45.5948 25.4631 45.5662 25.3774 45.3379 25.3917C45.0524 25.406 44.7669 25.3917 44.4958 25.4203C43.9248 25.4916 43.3967 25.3774 42.9115 25.0777C42.7402 24.9778 42.6117 24.9635 42.4262 25.0777C42.1835 25.249 41.8695 25.3346 41.5698 25.3632C41.3129 25.3917 41.2986 25.5202 41.3843 25.6914C41.4984 25.9626 41.5698 26.2481 41.6126 26.5478C41.7125 27.2472 41.6126 27.9466 41.527 28.6459C41.4984 28.9457 41.4556 29.2311 41.3843 29.5166C41.3557 29.6593 41.4128 29.7164 41.5555 29.7307C42.1693 29.8163 42.1835 29.8449 42.0551 30.4015C41.6412 32.2142 41.3272 34.0554 40.8847 35.8681C40.6135 36.9814 40.3138 38.0804 39.9855 39.1794C39.7 40.1214 39.4717 41.092 39.0578 42.0054C38.3298 43.6611 37.3307 45.1455 35.9891 46.4158C35.3611 47.001 34.6902 47.5434 33.8196 47.8003C33.0346 48.0286 32.2924 48.0144 31.6929 47.4292C31.279 47.0153 31.0221 46.5157 30.9507 45.9448C30.8651 45.3025 30.9079 44.6602 30.9935 44.0179C31.0221 43.8181 31.0934 43.6326 31.2076 43.4613C31.4645 43.0759 31.8927 43.0759 32.1354 43.4613C32.2781 43.6897 32.4351 43.9323 32.5921 44.1464C33.0631 44.7887 33.8909 44.8172 34.4904 44.4747C34.99 44.1892 35.3611 43.7753 35.6751 43.3186C36.5457 42.0768 37.0738 40.6923 37.5306 39.2793C37.9016 38.1375 38.2014 36.9814 38.3869 35.7967C38.4012 35.6825 38.4298 35.5683 38.3869 35.4256C38.1728 35.5826 38.0301 35.7824 37.8731 35.9537C37.2165 36.6959 36.5172 37.3953 35.7036 37.9947C34.8901 38.5942 33.8339 38.0518 33.6055 37.2954C33.477 36.8672 33.3628 36.439 33.32 35.9822C33.32 35.9109 33.32 35.8252 33.2487 35.7967C33.163 35.7682 33.1202 35.8538 33.0774 35.9109C32.1925 36.7815 31.1934 37.5095 30.023 38.0376C29.8089 38.1375 29.5805 38.2516 29.3236 38.1517C29.1951 38.1089 29.1238 38.0376 29.0952 37.8948C28.924 37.1241 29.0381 36.3819 29.2237 35.6254C29.2522 35.5255 29.3807 35.3971 29.2522 35.3257C29.138 35.2686 29.0667 35.4399 28.9953 35.5255C28.3673 36.2249 27.7393 36.9243 27.0114 37.5523C26.783 37.7378 26.5404 37.9091 26.2835 38.0233C25.5127 38.3801 24.7991 38.0661 24.4993 37.2668C24.3281 36.7958 24.3281 36.3105 24.3423 35.8252C24.3423 35.7682 24.3423 35.6968 24.3423 35.5826C24.1711 35.7967 24.0426 35.968 23.8999 36.1392C23.4574 36.6816 22.9864 37.2097 22.5725 37.7664C22.1728 38.2802 21.4449 38.3373 21.0595 37.6665C20.4315 36.6103 19.7607 35.5683 19.1041 34.5264C18.1764 33.0563 17.2344 31.5862 16.2638 30.1446C16.221 30.0875 16.1782 30.0304 16.1068 29.9305C15.9355 30.3016 15.7785 30.6442 15.6073 30.9867C14.494 33.2133 12.981 35.1544 10.9115 36.6816C9.7839 37.5095 8.52788 38.0804 7.07203 38.1517C5.25937 38.2374 3.80352 37.5523 2.66169 36.2534C1.51985 34.9403 0.934656 33.4131 0.620651 31.786C0.178189 29.4452 0.306646 27.133 0.849019 24.8208C1.22012 23.2365 1.77676 21.695 2.59032 20.2534C4.24599 17.3132 6.60103 15.0295 9.81244 13.5737C11.8392 12.6459 13.9802 12.1321 16.2353 11.9608C17.9338 11.8324 19.6037 11.9466 21.2165 12.4889C22.8151 13.0313 24.0141 14.0019 24.5707 15.5434C25.056 16.8707 25.0274 18.2124 24.6278 19.5541C24.2139 20.9671 23.3147 22.0518 22.0301 22.8654C21.2736 23.3364 20.8169 23.9787 20.6314 24.7922C20.5314 25.2204 20.1603 25.4345 19.7322 25.3917C19.0756 25.3346 18.419 25.3632 17.7625 25.3489C17.6055 25.3489 17.5627 25.406 17.5056 25.5344C17.32 26.0054 17.3914 26.3908 17.7197 26.819C19.2897 28.8886 20.6028 31.1152 22.0158 33.2847C22.2014 33.5701 22.4012 33.8413 22.5868 34.141C22.6581 34.2552 22.7152 34.2695 22.8151 34.1553C22.915 34.0411 23.0292 33.9412 23.1291 33.8413C23.5716 33.3703 23.8713 33.3275 24.4422 33.67L24.4993 33.7557ZM15.436 23.7789C15.5216 23.3649 15.6073 22.9938 15.6786 22.6227C15.8499 21.6807 16.0497 20.7387 16.1068 19.7967C16.1354 19.34 16.1211 19.34 15.6501 19.4399C15.1791 19.5398 14.8223 19.34 14.7223 18.8975C14.6795 18.712 14.651 18.5407 14.6224 18.3551C14.5653 17.8841 14.7366 17.6272 15.2219 17.4702C16.2353 17.1277 17.2201 16.7423 18.1621 16.2713C18.4476 16.1285 18.7473 16.1143 19.0328 16.2998C19.3182 16.4711 19.3896 16.7423 19.3325 17.0277C19.1898 17.9127 19.0471 18.7833 18.9043 19.6682C18.7759 20.439 18.6189 21.2097 18.4761 21.9662C18.4476 22.1089 18.4761 22.166 18.6474 22.1517C19.9177 22.0947 20.8312 21.5237 21.4021 20.4675C21.973 19.3971 22.0301 18.2695 21.8588 17.1134C21.7732 16.4711 21.4449 15.9002 20.9168 15.472C20.1889 14.8725 19.3182 14.6013 18.3905 14.4872C16.9775 14.3016 15.5645 14.3302 14.1657 14.53C11.0542 14.9724 8.55642 16.3712 6.67239 18.712C4.47435 21.4238 3.40388 24.5068 3.34679 27.9037C3.31824 29.2882 3.38961 30.6727 3.87489 32.0001C4.26026 33.0848 4.80263 34.1125 5.78747 34.8547C6.70094 35.5541 7.75714 35.7253 8.85615 35.3685C10.3405 34.8975 11.4253 33.9412 12.2388 32.728C13.2808 31.158 13.866 29.4167 14.4226 27.6611C14.4512 27.5755 14.4226 27.5327 14.3798 27.4613C13.9373 26.8761 13.4521 26.3194 12.8383 25.877C11.9677 25.2632 11.1256 25.3346 10.3976 26.1054C9.99799 26.5335 9.74108 27.0331 9.54126 27.5612C9.08452 28.8029 9.09879 30.0732 9.2558 31.3578C9.29862 31.7574 9.08452 32.0857 8.65633 32.1714C8.31378 32.2427 8.0426 32.1143 7.8285 31.8716C6.91503 30.9011 6.74375 29.7592 7.00067 28.5603C7.47168 26.2624 8.81334 24.4497 10.7545 23.0224C11.9106 22.1803 13.295 22.166 14.4083 22.8939C14.7937 23.1509 15.1363 23.4363 15.4503 23.8074L15.436 23.7789ZM35.9748 34.0839C35.9748 34.2267 35.9891 34.3694 36.0033 34.5121C36.0033 34.5692 35.9891 34.6263 36.0604 34.6549C36.1318 34.6691 36.1746 34.612 36.2032 34.5835C36.4744 34.3123 36.7313 34.0126 36.9454 33.6986C38.13 32.0286 38.9864 30.2302 39.6287 28.3177C39.8428 27.6897 39.9998 27.0616 40.0569 26.4051C40.0711 26.2053 39.9998 26.1767 39.8285 26.2624C39.4574 26.4336 39.1577 26.7048 38.9008 26.9903C38.0587 27.9323 37.502 29.0313 36.9596 30.1446C36.3459 31.4006 36.0033 32.6995 35.9748 34.0839ZM26.8544 33.9269C26.8544 34.0839 26.8544 34.2267 26.8544 34.3837C26.8544 34.4408 26.8401 34.4979 26.8972 34.5264C26.9686 34.555 27.0256 34.5264 27.0827 34.4693C27.6537 33.9555 28.1675 33.3846 28.5243 32.7137C29.3093 31.2436 30.0087 29.745 30.5368 28.1892C30.7223 27.6326 30.8936 27.0759 31.0078 26.505C31.0221 26.4194 31.0934 26.2909 31.0078 26.2338C30.9079 26.1624 30.808 26.2909 30.7366 26.348C30.6224 26.4336 30.5083 26.5335 30.3941 26.6335C29.138 27.8324 28.2959 29.274 27.6108 30.8012C27.1541 31.8003 26.8686 32.8279 26.8401 33.9127L26.8544 33.9269Z" fill="#054384"/>
<path d="M7.25732 13.9161C7.54278 13.3452 7.94243 12.8456 8.35634 12.3461C10.1405 10.148 12.2957 8.3211 14.7792 6.82244C16.4634 5.79479 18.1904 4.8385 20.0459 4.0963C22.5294 3.08292 25.0843 2.21227 27.7105 1.55572C29.7658 1.04189 31.8497 0.670792 33.9621 0.399606C35.2323 0.22833 36.5026 0.156965 37.7729 0.0856003C39.3858 -3.74662e-05 40.9986 -0.0285834 42.5972 -3.74615e-05C43.8818 0.0142355 45.1521 0.114146 46.4224 0.242603C47.8211 0.385333 49.2341 0.542335 50.6186 0.799249C53.1449 1.27026 55.6427 1.88399 58.0691 2.69755C61.4661 3.83939 64.6347 5.40942 67.5749 7.36481C69.6587 8.74929 71.5571 10.3621 73.2555 12.1605C74.5686 13.5593 75.6534 15.115 76.5669 16.7564C77.5802 18.5834 78.0798 20.5673 78.4509 22.5655C78.8363 24.7207 78.5651 26.8331 78.0798 28.9598C77.5232 31.429 76.3528 33.6271 74.7542 35.6538C73.8265 36.8242 72.8273 37.9518 71.7283 38.9794C70.1726 40.4353 68.4027 41.6342 66.5472 42.7332C66.0049 43.0472 65.4625 43.3612 64.9201 43.6752C64.8488 43.7181 64.7774 43.7894 64.6775 43.7752C64.9629 43.3184 65.3483 42.9188 65.6766 42.4906C66.7613 41.0776 67.8746 39.6931 68.8024 38.1944C69.516 37.0526 70.0441 35.8251 70.4866 34.5691C71.2573 32.3425 71.657 30.0446 71.6855 27.7038C71.6855 26.0909 71.3001 24.5352 70.7578 23.0223C70.3296 21.8519 69.83 20.71 69.2163 19.611C67.8318 17.1275 65.9192 15.0437 63.6213 13.2738C60.0673 10.5191 56.1565 8.34965 51.8461 6.85099C49.4768 6.02316 47.0218 5.38087 44.5383 4.93841C43.0825 4.6815 41.5838 4.55304 40.0994 4.43886C38.301 4.29613 36.5026 4.26758 34.7042 4.3104C32.4348 4.35322 30.194 4.61013 27.9531 4.98123C25.6837 5.35233 23.4429 5.88043 21.2591 6.55126C18.533 7.37909 15.9353 8.47811 13.4946 9.87686C11.4536 11.0472 9.51245 12.3604 7.64269 13.7448C7.54278 13.8162 7.44287 13.9161 7.31442 13.9589L7.25732 13.9161Z" fill="#054384"/>
<path d="M65.2914 29.074C65.4484 29.0455 65.5198 28.9598 65.634 28.9027C65.8052 28.8171 65.9908 28.76 66.1621 28.9027C66.3191 29.0312 66.3048 29.1882 66.2334 29.3595C65.8909 30.273 65.5911 31.2007 65.3485 32.1427C65.2486 32.5424 65.1487 32.942 65.0488 33.3559C65.0488 33.413 65.0345 33.4701 65.0488 33.5272C65.0488 33.5986 65.0488 33.6842 65.1344 33.7127C65.22 33.727 65.2343 33.6414 65.2629 33.5843C65.4484 33.2988 65.634 33.2988 65.8195 33.5843C66.0907 33.9982 66.3333 34.4121 66.4047 34.8974C66.4332 35.0972 66.4047 35.2685 66.2762 35.4398C65.3342 36.653 64.0782 37.4808 62.6509 38.1088C62.5653 38.1516 62.4654 38.1516 62.3797 38.1802C62.08 38.2373 61.9658 38.1802 61.8944 37.8947C61.766 37.3666 61.766 36.8385 61.9515 36.3104C62.0514 36.0107 61.9943 35.7252 62.0086 35.4398C62.0086 35.3969 62.0086 35.3541 61.9515 35.3541C61.8802 35.3541 61.8516 35.4112 61.8231 35.454C61.6375 35.7823 61.4092 36.0963 61.1522 36.3818C60.6812 36.9099 60.1389 37.3809 59.5679 37.7948C59.2539 38.0232 58.8828 38.1516 58.4832 38.2087C58.1835 38.2515 57.9694 38.1088 57.7696 37.909C57.2843 37.4094 57.113 36.81 57.0559 36.1677C56.9274 34.9545 57.1701 33.7841 57.5126 32.6137C57.9694 31.0009 58.5831 29.4451 59.4966 28.0036C60.5813 26.3051 61.8659 24.7493 63.5501 23.5218C64.6491 22.7226 65.9051 22.1802 67.2611 21.8947C67.518 21.8376 67.7749 21.8519 68.0318 21.8804C68.1603 21.8804 68.2745 21.9375 68.3601 22.0374C68.8168 22.4799 69.0167 22.9937 68.8882 23.6075C68.7883 24.1213 68.6313 24.6209 68.3886 25.1061C68.2459 25.3916 67.8463 25.463 67.6036 25.3488C67.518 25.306 67.4324 25.2631 67.361 25.2203C67.0042 25.0062 66.6331 24.9777 66.2477 25.1775C66.0907 25.2631 65.9194 25.2774 65.7339 25.306C65.477 25.3345 65.3342 25.4915 65.4199 25.7056C65.8052 26.8046 65.5769 27.8751 65.3057 28.9456C65.3057 28.9884 65.3057 29.0312 65.3057 29.1026L65.2914 29.074ZM59.6536 33.8412C59.6536 34.0981 59.6536 34.2694 59.6964 34.4407C59.7107 34.4978 59.6964 34.5834 59.7678 34.5977C59.8534 34.6262 59.882 34.5406 59.9248 34.4978C60.2102 34.1837 60.4671 33.8412 60.7098 33.4986C61.6946 32.0999 62.3797 30.5727 62.9792 29.0027C63.2932 28.1748 63.5786 27.347 63.7214 26.4763C63.7357 26.3764 63.7927 26.2622 63.6643 26.1909C63.5501 26.1338 63.4502 26.1909 63.3503 26.248C63.0934 26.405 62.8935 26.6191 62.708 26.8474C61.6375 28.1606 60.8382 29.6164 60.253 31.1722C59.9248 32.0571 59.6679 32.9563 59.6393 33.8127L59.6536 33.8412Z" fill="#054384"/>
<path d="M56.0568 45.0883C56.0568 45.5736 56.0568 46.0589 56.0568 46.5441C56.0568 46.6869 56.0853 46.801 56.2423 46.8724C56.5278 47.0151 56.5563 47.1864 56.3423 47.4291C56.3137 47.4576 56.2994 47.4719 56.2709 47.4862C55.8142 47.7431 55.3289 47.8715 54.8008 47.8715C54.5296 47.8715 54.4297 47.7288 54.4011 47.5004C54.4011 47.4433 54.4439 47.3434 54.3155 47.3291C54.2298 47.3291 54.1585 47.3291 54.0871 47.4005C53.9587 47.5147 53.8445 47.6146 53.7017 47.7145C53.1451 48.0856 52.3744 47.9143 52.0746 47.3434C51.9604 47.1293 51.9034 46.8867 51.8891 46.6583C51.8605 46.016 51.8463 45.3738 51.832 44.7315C51.832 44.5887 51.8034 44.4746 51.675 44.3746C51.5894 44.3176 51.518 44.2176 51.4466 44.1463C51.1754 43.8465 51.1897 43.6895 51.5751 43.5183C52.1032 43.2756 52.6741 43.2471 53.245 43.2756C53.4734 43.2756 53.4591 43.4612 53.4591 43.6182C53.4591 44.5031 53.4591 45.388 53.4734 46.2729C53.4734 46.3729 53.4734 46.487 53.5305 46.5727C53.6161 46.7582 53.716 46.901 53.9729 46.8724C54.2299 46.8439 54.3583 46.6583 54.3583 46.487C54.3869 45.8162 54.3726 45.1311 54.3726 44.4603C54.3726 44.3461 54.2584 44.289 54.187 44.2176C53.8873 43.9036 53.9016 43.7038 54.3155 43.5183C54.7722 43.3042 55.2575 43.2756 55.7571 43.2756C55.9854 43.2756 56.0568 43.4184 56.0568 43.6182C56.0568 44.1177 56.0568 44.6173 56.0568 45.1168V45.0883Z" fill="#054384"/>
<path d="M46.5367 45.7734C46.5653 44.8885 46.7936 44.1463 47.5358 43.6182C48.8204 42.7047 50.5189 43.2899 50.8614 44.7601C50.9899 45.3024 51.0327 45.8163 50.8329 46.3444C50.4903 47.2293 49.791 47.686 48.8061 47.8573C47.7785 48.0286 46.6081 47.2007 46.551 46.116C46.551 45.9875 46.5367 45.8448 46.5225 45.7734H46.5367ZM48.2495 45.0741C48.2495 45.174 48.2495 45.2596 48.2495 45.3595C48.2923 45.8163 48.3494 46.2587 48.6491 46.6441C48.7348 46.744 48.8347 46.8296 48.9917 46.8011C49.163 46.7725 49.2343 46.6441 49.2486 46.5014C49.3057 45.802 49.2486 45.1169 48.906 44.4746C48.8347 44.3461 48.7205 44.2605 48.5635 44.2748C48.4065 44.2891 48.3351 44.4032 48.2923 44.5174C48.2209 44.6887 48.2495 44.8742 48.2495 45.0598V45.0741Z" fill="#054384"/>
<path d="M43.1824 45.5308C43.1824 45.1455 43.1824 44.7458 43.1824 44.3604C43.1824 44.2034 43.1396 44.1178 42.954 44.1463C42.9398 44.1463 42.9255 44.1463 42.8969 44.1463C42.7542 44.1178 42.5401 44.2177 42.4973 44.0607C42.4545 43.8609 42.3831 43.6468 42.64 43.4612C43.1539 43.0759 43.6391 42.6477 44.1244 42.2195C44.3385 42.0339 44.5812 42.0625 44.8238 42.0768C44.9665 42.0768 44.9523 42.2195 44.9523 42.3051C44.9523 42.5335 44.9665 42.7476 44.9523 42.976C44.9237 43.1901 45.0093 43.2329 45.2092 43.2329C45.4233 43.2329 45.6516 43.2329 45.88 43.2329C46.0085 43.2329 46.0655 43.2614 46.0513 43.3899C46.0513 43.5754 46.0513 43.761 46.0513 43.9323C46.0513 44.0893 45.9656 44.1892 45.7801 44.1749C45.566 44.1749 45.3519 44.1749 45.1378 44.1749C44.9951 44.1749 44.938 44.2177 44.938 44.3462C44.938 44.9885 44.938 45.6165 44.938 46.2587C44.938 46.6584 45.252 46.8011 45.5945 46.6013C45.6944 46.5442 45.7801 46.4157 45.9228 46.5299C46.0655 46.6298 46.0798 46.7726 46.0655 46.9153C46.0085 47.2579 45.7515 47.4577 45.4661 47.629C45.0664 47.8573 44.624 47.9572 44.153 47.8859C43.6249 47.8002 43.2252 47.3292 43.211 46.7583C43.211 46.5585 43.211 46.3587 43.211 46.1588C43.211 45.959 43.211 45.7592 43.211 45.5594H43.1824V45.5308Z" fill="#054384"/>
<path d="M58.9971 45.8162C58.9971 46.0588 58.9971 46.2872 58.9971 46.5298C58.9971 46.6868 59.04 46.7867 59.2112 46.8295C59.354 46.8581 59.4681 46.958 59.5681 47.0579C59.8107 47.2863 59.6965 47.6431 59.3397 47.7573C58.8687 47.9143 58.3691 47.9428 57.8838 47.8857C57.6412 47.8572 57.4128 47.8572 57.1845 47.7573C56.8134 47.6003 56.7277 47.272 57.0417 47.0151C57.3129 46.7867 57.3986 46.5298 57.3843 46.2158C57.3843 45.7876 57.37 45.3594 57.3843 44.9312C57.3843 44.7171 57.3129 44.5744 57.1417 44.446C56.7848 44.2033 56.8134 43.9321 57.1702 43.718C57.6127 43.4611 58.0979 43.3469 58.6118 43.2756C58.8401 43.247 58.94 43.3184 58.9829 43.5325C59.0114 43.6609 58.9115 43.8465 59.1113 43.9036C59.3254 43.9607 59.354 43.7323 59.4396 43.6324C59.825 43.2042 60.2674 43.1186 60.5957 43.4611C60.8669 43.7466 61.0239 44.0891 60.8812 44.4888C60.8241 44.6458 60.7527 44.8028 60.6528 44.9455C60.3245 45.388 59.8107 45.4165 59.4253 45.0312C59.3254 44.9312 59.2683 44.7457 59.0685 44.8313C58.9115 44.9027 58.9543 45.074 58.9543 45.2167C58.9543 45.4308 58.9543 45.6306 58.9543 45.8447L58.9971 45.8162Z" fill="#054384"/>
<path d="M7.27105 13.9303C7.27105 13.9303 7.25701 13.9584 7.24297 13.9584C7.21489 13.9303 7.24297 13.9163 7.25701 13.9163L7.27105 13.9303Z" fill="#054384"/>
<path d="M64.6623 43.7896L64.6489 43.8029L64.6623 43.7896Z" fill="#054384"/>
</g>
<defs>
<clipPath id="clip0_74_4421">
<rect width="78.2159" height="48" fill="white" transform="translate(0.39209)"/>
</clipPath>
</defs>
</svg>
